<?xml version="1.0" standalone="no"?><svg xmlns="http://www.w3.org/2000/svg" viewBox="0 0 1440 320"><path fill="#abd1c6" fill-opacity="1" d="M 0 70 L 0 111 L 0 166 C 43.6 123 87 177 131 230 C 174.5 283 218 337 262 310 C 305.5 283 349 177 393 139.3 C 436.4 102 480 134 524 155.3 C 567.3 177 611 187 655 187.3 C 698.2 187 742 177 785 182 C 829.1 187 873 209 916 192.7 C 960 177 1004 123 1047 118 C 1090.9 113 1135 155 1178 198 C 1221.8 241 1265 283 1309 278 C 1352.7 273 1396 219 1418 192.7 L 1440 166 L 1440 0 Q 11 0 0 0 Z"></path></svg>
